<?xml version="1.0" standalone="no"?>
<!DOCTYPE svg PUBLIC "-//W3C//DTD SVG 20010904//EN"
 "http://www.w3.org/TR/2001/REC-SVG-20010904/DTD/svg10.dtd">
<svg version="1.0" xmlns="http://www.w3.org/2000/svg"
 width="512.000000pt" height="512.000000pt" viewBox="0 0 512.000000 512.000000"
 preserveAspectRatio="xMidYMid meet">

<g transform="translate(0.000000,512.000000) scale(0.100000,-0.100000)"
fill="#000000" stroke="none">
<path d="M805 4748 c-89 -16 -204 -80 -278 -153 -77 -76 -138 -190 -156 -289
-15 -83 -15 -3409 0 -3492 18 -99 79 -213 156 -289 76 -76 190 -137 287 -154
83 -15 3409 -15 3492 0 99 18 213 79 289 156 76 76 137 190 154 287 15 83 15
3409 0 3492 -38 213 -230 405 -443 443 -77 14 -3428 13 -3501 -1z m861 -882
c152 -70 222 -257 152 -406 -114 -246 -453 -246 -566 -1 -36 78 -36 174 0 252
74 161 254 228 414 155z m182 -1753 l2 -893 -315 0 -315 0 0 888 c0 489 3 892
7 895 4 4 144 6 312 5 l306 -3 3 -892z m852 775 l0 -121 56 61 c64 71 116 104
214 138 131 44 353 50 507 13 198 -47 332 -188 383 -400 33 -139 40 -290 40
-836 l0 -523 -270 0 -269 0 -3 538 c-3 530 -4 538 -26 605 -30 88 -104 169
-171 187 -48 13 -162 15 -207 4 -87 -21 -159 -87 -193 -178 -34 -92 -41 -206
-41 -694 l0 -462 -257 2 -258 3 -3 880 c-1 484 0 886 3 893 3 9 63 12 250 12
l245 0 0 -122z"/>
</g>
</svg>
